# xmcd
#
# Track frame offsets: 
#        150
#        17408
#        33180
#        50245
#        62954
#        75283
#        92776
#        107651
#        123824
#        142823
#        157010
#        173026
#
# Disc length: 2634 seconds
#
# Revision: 0
# Processed by: cddbd v1.5.2PL0 Copyright (c) Steve Scherf et al.
# Submitted via: ExactAudioCopy v0.95b4
#
DISCID=8e0a480c
DTITLE=Brent Woodall and NTB - On Top Of The Covers
DYEAR=2007
DGENRE=Americana
TTITLE0=Love Me
TTITLE1=Redneck Feelin' Blue
TTITLE2=Elusive Butterfly
TTITLE3=Hey Good Lookin'
TTITLE4=Teach Your Children
TTITLE5=Never Been To Spain
TTITLE6=Bright Side Of The Road
TTITLE7=I Know A Little
TTITLE8=Powerful Stuff
TTITLE9=Overnight Male
TTITLE10=At This Moment
TTITLE11=The Weight "LIVE"
EXTD=
EXTT0=
EXTT1=
EXTT2=
EXTT3=
EXTT4=
EXTT5=
EXTT6=
EXTT7=
EXTT8=
EXTT9=
EXTT10=
EXTT11=
PLAYORDER=
